<svg xmlns="http://www.w3.org/2000/svg" data-name="Layer 1" viewBox="0 0 64 64"><path fill="#3b4551" d="M47.1,10.56A8.92,8.92,0,0,0,38.38,3.5H18.66a8.92,8.92,0,0,0-8.91,8.91v32.3a8.92,8.92,0,0,0,7.15,8.73,8.92,8.92,0,0,0,8.71,7.06H45.34a8.92,8.92,0,0,0,8.91-8.91V19.29A8.92,8.92,0,0,0,47.1,10.56Zm-30.38,40a6.2,6.2,0,0,1-4.24-5.87V12.41a6.19,6.19,0,0,1,6.19-6.19H38.38a6.19,6.19,0,0,1,6.19,6.19V44.14l-6.75,6.75H18.66A6.15,6.15,0,0,1,16.71,50.58ZM51.53,51l-6.75,6.75H25.62a6.2,6.2,0,0,1-5.85-4.17H38.38a8.92,8.92,0,0,0,8.91-8.91V13.42a6.2,6.2,0,0,1,4.24,5.87Z"/><rect width="25.15" height="1.92" x="15.94" y="40.85" fill="#36c" rx=".96" ry=".96"/><rect width="25.15" height="1.92" x="15.94" y="30.25" fill="#36c" rx=".96" ry=".96"/><rect width="16.34" height="1.92" x="24.75" y="24.95" fill="#36c" rx=".96" ry=".96"/><rect width="16.34" height="1.92" x="24.75" y="19.65" fill="#36c" rx=".96" ry=".96"/><rect width="16.34" height="1.92" x="24.75" y="14.35" fill="#36c" rx=".96" ry=".96"/><rect width="25.15" height="1.92" x="15.94" y="35.55" fill="#36c" rx=".96" ry=".96"/><path fill="#36c" d="M19.56,19.69c-1.28-.53-1.65-.85-1.65-1.42s.34-1,1.28-1a3.27,3.27,0,0,1,1.71.46l.27.15.55-1.46-.19-.11a4.06,4.06,0,0,0-1.77-.53V14.35H18.33v1.52a2.61,2.61,0,0,0-2.2,2.57c0,1.55,1.24,2.25,2.57,2.77,1.06.43,1.49.86,1.49,1.49s-.59,1.17-1.47,1.17a3.61,3.61,0,0,1-2-.58l-.28-.19-.53,1.48.16.12a4.4,4.4,0,0,0,2.12.68v1.49h1.45V25.3A2.78,2.78,0,0,0,22,22.6C22,21.25,21.26,20.38,19.56,19.69Z"/></svg>